<svg xmlns="http://www.w3.org/2000/svg" viewBox="0 0 373.32 421.06"><defs><style>.cls-1{fill:#fbb040;opacity:0.9;}.cls-2{fill:#1c75bc;opacity:0.5;}.cls-3{fill:#ec008c;opacity:0.57;}</style></defs><g id="Layer_2" data-name="Layer 2"><g id="Layer_1-2" data-name="Layer 1"><path class="cls-1" d="M109.14,258.43a11.12,11.12,0,0,0-15.43-3.73L65.79,285.61l12.5-38.92A11.38,11.38,0,0,0,66.4,235.94l-17,.82,7.84-15.08a11.76,11.76,0,0,0-4.62-15.58L8,197.68l44.56-8.31a11.77,11.77,0,0,0,4.61-15.59l-7.87-15.06,17,.79a11.39,11.39,0,0,0,11.88-10.77L67.05,103.48,93.62,140.7A11.11,11.11,0,0,0,109,137l8.77-14.64L126.6,137A11.12,11.12,0,0,0,142,140.67L167.54,111l-10.1,37.66a11.38,11.38,0,0,0,11.9,10.75l17-.81-7.85,15.07a11.77,11.77,0,0,0,4.63,15.58l37.14,8.41L183.16,206a11.79,11.79,0,0,0-4.6,15.6l7.86,15.06-17-.79a11.39,11.39,0,0,0-11.88,10.76l19.08,54.06-34.48-46a11.11,11.11,0,0,0-15.42,3.74l-8.76,14.64Z"/><path class="cls-2" d="M60,396a6.59,6.59,0,0,0-9.16-2.21L34.29,412.11,41.71,389a6.75,6.75,0,0,0-7.05-6.38l-10.11.49,4.65-8.95a7,7,0,0,0-2.74-9.25L0,359.93,26.45,355a7,7,0,0,0,2.73-9.25l-4.67-8.94,10.11.47a6.75,6.75,0,0,0,7.05-6.39L35,304l15.77,22.1A6.6,6.6,0,0,0,60,323.88l5.2-8.69,5.22,8.69a6.6,6.6,0,0,0,9.15,2.21l15.14-17.6-6,22.35a6.76,6.76,0,0,0,7.06,6.38l10.11-.48-4.66,8.94a7,7,0,0,0,2.75,9.25l22,5-22,4.93a7,7,0,0,0-2.74,9.26l4.67,8.94-10.11-.47a6.76,6.76,0,0,0-7,6.39l11.33,32.08L79.59,393.75A6.59,6.59,0,0,0,70.44,396l-5.2,8.69Z"/><path class="cls-3" d="M304.55,247a6.86,6.86,0,0,0-9.54-2.3l-17.27,19.12,7.73-24.08a7,7,0,0,0-7.35-6.65l-10.54.51,4.85-9.33a7.27,7.27,0,0,0-2.86-9.64L242,209.38l27.57-5.15a7.27,7.27,0,0,0,2.85-9.64l-4.87-9.32,10.54.49a7,7,0,0,0,7.35-6.66l-6.91-28,16.44,23a6.88,6.88,0,0,0,9.54-2.32l5.42-9.06,5.44,9.05a6.88,6.88,0,0,0,9.54,2.31l15.78-18.35-6.24,23.3a7,7,0,0,0,7.35,6.65l10.54-.5-4.85,9.32a7.27,7.27,0,0,0,2.86,9.64l23,5.21-23,5.14a7.29,7.29,0,0,0-2.85,9.65l4.87,9.31L341.83,233a7,7,0,0,0-7.35,6.66l11.81,33.44L325,244.63a6.87,6.87,0,0,0-9.54,2.31L310,256Z"/><path class="cls-2" d="M60,92a6.59,6.59,0,0,0-9.16-2.21L34.29,108.1,41.71,85a6.74,6.74,0,0,0-7.05-6.38l-10.11.49,4.65-9a7,7,0,0,0-2.74-9.25L0,55.91,26.45,51a7,7,0,0,0,2.73-9.26l-4.67-8.93,10.11.46a6.75,6.75,0,0,0,7.05-6.38L35,0,50.81,22.1A6.6,6.6,0,0,0,60,19.87l5.2-8.69,5.22,8.69a6.6,6.6,0,0,0,9.15,2.21L94.68,4.47l-6,22.36a6.76,6.76,0,0,0,7.06,6.38l10.11-.48-4.66,8.94A7,7,0,0,0,104,50.92l22,5-22,4.94a7,7,0,0,0-2.74,9.26L105.89,79l-10.11-.46a6.76,6.76,0,0,0-7,6.39l11.33,32.08L79.59,89.73A6.59,6.59,0,0,0,70.44,92l-5.2,8.69Z"/></g></g></svg>