<svg xmlns="http://www.w3.org/2000/svg" viewBox="0 0 312.65 264.95"><defs><style>.cls-1{fill:#fff;}.cls-1,.cls-3{opacity:0.5;}.cls-2{fill:#ec008c;opacity:0.57;}.cls-3{fill:#1c75bc;}</style></defs><g id="Layer_2" data-name="Layer 2"><g id="Layer_1-2" data-name="Layer 1"><path class="cls-1" d="M60,239.87a6.6,6.6,0,0,0-9.16-2.21L34.29,256l7.42-23.1a6.73,6.73,0,0,0-7.05-6.38L24.55,227l4.65-8.95a7,7,0,0,0-2.74-9.25L0,203.82l26.45-4.94a7,7,0,0,0,2.73-9.25l-4.67-8.94,10.11.47a6.75,6.75,0,0,0,7.05-6.39L35,147.9,50.81,170A6.6,6.6,0,0,0,60,167.78l5.2-8.69,5.22,8.68A6.6,6.6,0,0,0,79.54,170l15.14-17.6-6,22.36a6.75,6.75,0,0,0,7.06,6.37l10.11-.48-4.66,9a7,7,0,0,0,2.75,9.24l22,5-22,4.94a7,7,0,0,0-2.74,9.25l4.67,8.94-10.11-.47a6.76,6.76,0,0,0-7,6.39L100.06,265,79.59,237.64a6.59,6.59,0,0,0-9.15,2.22l-5.2,8.69Z"/><path class="cls-2" d="M243.89,190.12a6.89,6.89,0,0,0-9.55-2.31l-17.26,19.13,7.73-24.08a7,7,0,0,0-7.36-6.65l-10.53.5,4.85-9.32a7.3,7.3,0,0,0-2.86-9.65l-27.58-5.2,27.57-5.14a7.3,7.3,0,0,0,2.85-9.65l-4.87-9.32,10.54.49a7,7,0,0,0,7.35-6.66l-6.92-28,16.44,23a6.86,6.86,0,0,0,9.54-2.32l5.43-9,5.43,9a6.88,6.88,0,0,0,9.55,2.3L280,98.93l-6.25,23.3a7.05,7.05,0,0,0,7.36,6.65l10.54-.51-4.86,9.32a7.29,7.29,0,0,0,2.86,9.64l23,5.21-23,5.15a7.29,7.29,0,0,0-2.85,9.64l4.87,9.32-10.53-.49a7,7,0,0,0-7.35,6.66l11.8,33.44-21.33-28.47a6.88,6.88,0,0,0-9.54,2.32l-5.42,9Z"/><path class="cls-3" d="M115.36,92a6.59,6.59,0,0,0-9.16-2.21L89.63,108.1,97.05,85A6.76,6.76,0,0,0,90,78.62l-10.11.49,4.66-9a7,7,0,0,0-2.74-9.25l-26.46-5L81.79,51a7,7,0,0,0,2.73-9.26l-4.67-8.93L90,33.25A6.75,6.75,0,0,0,97,26.87L90.38,0l15.77,22.1a6.59,6.59,0,0,0,9.15-2.23l5.21-8.69,5.21,8.69a6.61,6.61,0,0,0,9.16,2.21L150,4.47l-6,22.36a6.76,6.76,0,0,0,7.06,6.38l10.11-.48-4.66,8.94a7,7,0,0,0,2.74,9.25l22.05,5-22,4.94a7,7,0,0,0-2.73,9.26L161.23,79l-10.11-.46A6.75,6.75,0,0,0,144.07,85l11.33,32.08L134.93,89.73A6.59,6.59,0,0,0,125.78,92l-5.21,8.69Z"/></g></g></svg>