<svg xmlns="http://www.w3.org/2000/svg" viewBox="0 0 583.61 575.94"><defs><style>.cls-1{fill:#6d6e71;stroke-width:10px;opacity:0.72;}.cls-1,.cls-2{stroke:#414042;stroke-miterlimit:10;}.cls-2,.cls-5,.cls-6{fill:#fff;}.cls-2{stroke-width:4px;}.cls-3{fill:#414042;}.cls-4{fill:#302c2d;}.cls-5{opacity:0.65;}.cls-6{opacity:0.8;}.cls-7{fill:#232222;}</style></defs><g id="Layer_2" data-name="Layer 2"><g id="Layer_1-2" data-name="Layer 1"><path class="cls-1" d="M9.8,528.83C-5,452.55,1.5,68.93,222.23,11.89c78.82-20.36,148.07,10.45,158,15C605.78,131.05,590.42,555.22,564.06,562.09c-10.38,2.7-32.64-56.67-53.1-51.44-17.37,4.44-15,50.76-31.39,53.49-15.85,2.64-25.48-39.4-48.71-40.35-23.75-1-32.61,42.23-57.16,41.9-24.36-.34-34.06-43.14-54-40.82-19.42,2.26-23.15,44.32-40,44.72s-24.33-41.56-41.94-41.1c-15.57.4-19.69,33.46-36.43,34.32s-22.06-31.58-41.31-33c-22.31-1.67-35.4,40.41-52.71,36.92-15.6-3.14-14.72-39.29-28.55-41.28C62.28,523.06,48.93,572.56,32,570.9,17.69,569.5,10.54,532.66,9.8,528.83Z"/><path class="cls-2" d="M91.23,191c10.53-26.87,30.74-48.24,51.83-49.43,67.3-3.81,117.08,199.39,105.34,213.34-7.39,8.77-33.81-63.69-80.26-62.44-34.53.92-48.79,41.73-66.88,28.61C81.12,306.45,73.1,237.23,91.23,191Z"/><path class="cls-2" d="M478.53,186.33c-10.22-29-29.85-52.11-50.32-53.4C362.88,128.82,314.56,348.34,326,363.41c7.17,9.48,32.82-68.8,77.92-67.46,33.52,1,47.36,45.09,64.92,30.92C488.34,311.1,496.13,236.32,478.53,186.33Z"/><path class="cls-3" d="M91.82,142.51q45.87,8,90.85,20.32,12.77,3.48,25.43,7.3c5,1.51,11.12-1.81,12.3-7a10.22,10.22,0,0,0-7-12.31q-44.68-13.46-90.49-22.75-12.87-2.59-25.8-4.86a10.74,10.74,0,0,0-7.7,1,10,10,0,0,0-3.59,13.68c1.33,2.07,3.45,4.15,6,4.59Z"/><path class="cls-3" d="M359.74,165.48q44.56-13.9,90.28-23.61,12.83-2.73,25.74-5.12a10,10,0,0,0,2.39-18.28,11.3,11.3,0,0,0-7.71-1q-46,8.54-91.06,21.3-12.53,3.56-24.95,7.44a10.49,10.49,0,0,0-6,4.59,10.28,10.28,0,0,0-1,7.71c1.63,5,7,8.65,12.3,7Z"/><ellipse class="cls-3" cx="387.34" cy="240.29" rx="39.12" ry="44.33"/><circle class="cls-4" cx="387.34" cy="240.29" r="16.95"/><circle class="cls-5" cx="370.39" cy="244.79" r="7.84"/><circle class="cls-6" cx="398.71" cy="223.34" r="15.5"/><ellipse class="cls-3" cx="113.79" cy="232.45" rx="36.18" ry="41"/><circle class="cls-7" cx="113.79" cy="232.45" r="15.68"/><circle class="cls-5" cx="129.11" cy="240.29" r="7.84"/><circle class="cls-6" cx="103.64" cy="218.83" r="15.5"/></g></g></svg>